PathFileType	4	(X/Y/Z)	..\data\2014019\dynamic\2014019_C4_05.trc
DataRate	CameraRate	NumFrames	NumMarkers	Units	OrigDataRate	OrigDataStartFrame	OrigNumFrames
100.000000	100.000000	4	52	mm	100.000000	129	172
Frame#	Time	L_IAS			L_IPS			R_IPS			R_IAS			L_FTC			L_FLE			L_FME			L_FAX			L_TTC			L_FAL			L_TAM			L_FCC			L_FM1			L_FM2			L_FM5			R_FTC			R_FLE			R_FME			R_FAX			R_TTC			R_FAL			R_TAM			R_FCC			R_FM1			R_FM2			R_FM5			CV7			TV10			SXS			SJN			L_SIA			L_SRS			L_SAA			L_SAE			L_HLE			L_HME			L_UOA			L_RSP			L_UHE			L_HM2			L_HM5			R_SIA			R_SRS			R_SAA			R_SAE			R_HLE			R_HME			R_UOA			R_RSP			R_UHE			R_HM2			R_HM5			
		X1	Y1	Z1	X2	Y2	Z2	X3	Y3	Z3	X4	Y4	Z4	X5	Y5	Z5	X6	Y6	Z6	X7	Y7	Z7	X8	Y8	Z8	X9	Y9	Z9	X10	Y10	Z10	X11	Y11	Z11	X12	Y12	Z12	X13	Y13	Z13	X14	Y14	Z14	X15	Y15	Z15	X16	Y16	Z16	X17	Y17	Z17	X18	Y18	Z18	X19	Y19	Z19	X20	Y20	Z20	X21	Y21	Z21	X22	Y22	Z22	X23	Y23	Z23	X24	Y24	Z24	X25	Y25	Z25	X26	Y26	Z26	X27	Y27	Z27	X28	Y28	Z28	X29	Y29	Z29	X30	Y30	Z30	X31	Y31	Z31	X32	Y32	Z32	X33	Y33	Z33	X34	Y34	Z34	X35	Y35	Z35	X36	Y36	Z36	X37	Y37	Z37	X38	Y38	Z38	X39	Y39	Z39	X40	Y40	Z40	X41	Y41	Z41	X42	Y42	Z42	X43	Y43	Z43	X44	Y44	Z44	X45	Y45	Z45	X46	Y46	Z46	X47	Y47	Z47	X48	Y48	Z48	X49	Y49	Z49	X50	Y50	Z50	X51	Y51	Z51	X52	Y52	Z52	

130	1.29	429.156707763672	937.753356933594	141.414520263672	206.6800384521485	978.701110839844	182.1908874511719	190.8197784423828	960.7857666015627	277.6271972656251	386.6295471191407	914.8214111328127	367.496063232422	367.4442138671876	878.4949951171877	41.75086212158208	456.1812438964845	468.457244873047	128.7630615234376	406.5132751464844	455.2310485839845	253.0401153564454	437.9850463867189	407.9868469238282	120.9125976562501	477.6580810546876	401.8323364257814	183.8269042968751	409.981414794922	60.96039962768556	172.0577697753907	424.9989013671876	86.89487457275392	264.9341430664064	361.9936828613282	19.09138298034668	210.7300109863282	541.5119018554689	15.73536586761475	278.952117919922	568.6896362304689	32.44376754760743	227.6518096923829	537.7554931640626	16.27657127380371	164.8229980468751	268.80322265625	827.7422485351565	432.3321228027345	315.1459655761719	431.7766113281251	398.7281799316408	340.8605041503906	407.3333740234376	264.5706787109376	265.7759704589844	405.0835876464845	404.7225341796877	305.34326171875	347.9659118652344	355.9712829589845	-20.32063865661626	227.1227264404297	356.0928649902344	11.80170345306393	207.6557006835938	273.1939697265626	-65.45158386230474	249.7415466308594	292.8330993652344	-7.175525188446079	72.49885559082033	259.7297058105469	-9.153931617736857	60.27322387695314	316.8386535644532	-51.26039886474615	84.47435760498048	359.8474731445313	227.7273406982422	1460.262817382813	254.092010498047	164.8933563232422	1244.434814453125	246.734588623047	400.6479187011719	1150.443115234375	255.0967407226564	354.7664184570312	1376.114013671875	256.0279541015626	159.6341400146484	1280.517456054688	172.7421875000001	202.7306518554688	1409.888671875	141.5976715087891	239.2174530029297	1401.9482421875	80.07929229736332	288.1365356445313	1414.8046875	67.01013183593754	194.4545593261719	1094.16357421875	28.59713745117191	190.4194946289063	1090.557250976563	97.71886444091803	179.5493316650391	1074.093994140625	72.7594375610352	225.5284423828126	843.8450317382815	-9.064984321594212	159.2039184570313	867.4329223632815	-27.65613746643065	222.8847656250001	757.0791015625001	-33.3180351257324	125.8815841674805	784.4961547851565	-27.45463371276855	153.8764953613281	1277.283813476563	326.7736206054688	194.5423583984375	1409.04345703125	360.3745422363282	239.2595520019531	1407.127807617188	423.1433410644533	277.1526184082031	1422.639770507813	426.3658142089845	274.5008850097656	1098.066040039063	515.2430419921876	238.3744354248047	1082.90576171875	446.1476440429689	241.2691040039062	1060.701171875	487.5323181152345	449.8692626953126	910.8973388671877	489.7613525390627	395.6591186523438	889.3542480468752	531.1893920898439	507.6375122070313	836.572204589844	509.6914978027345	412.2251281738282	805.703552246094	521.0781250000001	
131	1.3	441.5559082031251	938.7059326171877	142.2909698486329	218.9132080078125	980.5269775390627	181.0571289062501	202.6076049804688	962.040954589844	276.1597595214844	397.6369628906251	917.124694824219	368.8093261718751	380.1478576660157	879.5910644531252	42.07902145385748	461.1175537109376	467.9580383300782	128.3411254882813	411.2908935546876	455.4907836914064	252.5441284179689	441.754852294922	407.6578063964845	120.4663925170899	481.6346435546876	401.032196044922	183.4026947021485	410.023162841797	60.94967651367189	172.1141967773438	425.0537414550782	87.0046844482422	264.9712524414064	361.9784240722657	19.06651687622071	210.6956787109376	541.3558349609376	15.99935913085938	279.1534729003907	568.5939941406251	32.82100296020509	227.9012298583986	537.7528076171876	16.66810035705567	165.0617218017579	280.4441833496094	828.3606567382815	431.8999938964845	340.2716064453125	433.7998657226564	399.7020263671877	365.1741638183594	409.7322692871095	264.9423828125001	291.9763793945312	406.8483276367189	405.9263000488283	331.2039489746094	350.1916198730469	356.5487060546876	5.496673583984332	230.0069427490235	358.1488037109376	37.22792053222653	209.9949798583985	275.2250366210938	-40.43834304809575	251.3274078369141	294.9013977050782	20.6860542297363	73.90718078613283	265.4865417480469	18.53469848632809	62.79951477050783	322.8448181152344	-23.6588916778565	88.18994903564455	364.9993896484376	240.8480072021485	1462.067626953125	253.6511688232423	177.2562255859375	1246.321166992188	245.3827514648438	412.5656738281251	1151.421630859375	255.9239959716798	367.4737243652344	1377.425903320313	256.522918701172	172.6348876953125	1282.777587890625	171.0847320556641	216.7548828125	1411.97998046875	140.7023162841797	253.6497039794922	1403.788818359375	79.38732910156254	302.8898620605469	1416.425903320313	66.93373870849615	212.881332397461	1094.217651367188	27.71937179565433	207.5946197509766	1090.974243164063	96.61418151855474	197.4162139892579	1073.937133789063	71.46697235107426	251.4627838134766	844.7340087890627	-8.327278137207003	185.1303405761719	866.1326904296877	-28.48483848571776	253.0612945556641	758.6298217773439	-33.52281570434568	154.9370727539063	781.7318115234377	-29.18398094177245	165.4779815673828	1279.234619140625	325.4139404296876	206.5830535888672	1410.81103515625	359.6120910644532	250.849365234375	1408.556762695313	422.6803588867189	288.746826171875	1423.910888671875	426.2047119140627	283.6113891601562	1099.02978515625	513.8429565429689	247.0782623291016	1084.78173828125	444.958221435547	249.5977172851562	1062.687622070313	486.0894165039064	453.2302856445313	906.4776000976565	488.7486267089845	398.4047851562501	886.868591308594	530.5011596679689	508.0744628906251	829.6770019531252	507.9595031738283	411.6561279296876	802.625671386719	520.2369995117189	
132	1.31	453.7669372558595	939.5317993164065	143.2280883789063	231.0289154052735	982.319519042969	179.9239349365235	214.313720703125	963.5096435546877	274.7044677734376	408.5404663085938	919.5463867187502	370.2532653808595	392.6377258300782	880.5531005859377	42.45099258422857	465.5270080566407	467.4246520996095	127.7463378906251	415.6321716308594	455.7328491210939	251.9610290527345	445.0353393554689	407.2871093750001	119.9122924804688	485.2277832031251	400.225067138672	182.8110656738282	410.0001525878907	60.87924575805665	172.0831298828126	425.0957641601563	87.12899017333986	264.8927001953126	361.8981018066407	19.05356597900391	210.6180725097657	541.1845092773439	16.21025657653809	279.3054199218751	568.4696044921876	33.05358886718751	228.0623931884767	537.7301635742189	16.84998321533203	165.2927551269532	291.8537292480469	829.3588867187502	431.5528259277345	365.0767517089844	436.3000488281251	400.5313415527345	389.2998352050782	412.7623291015626	265.2441711425782	317.7602844238281	408.9673461914064	406.8193969726564	357.0364685058594	352.8060913085938	357.0233459472657	31.99093437194821	231.5538024902344	359.8682556152344	63.57897949218748	211.0915679931641	276.9919738769532	-15.04487514495854	250.7266082763672	296.6007385253907	51.2648010253906	74.26864624023439	271.6220703125001	49.28605651855466	64.81172943115236	329.1837463378907	6.70905256271358	90.78664398193361	370.5397644042969	253.8710327148438	1463.843872070313	253.2443389892579	189.5342407226562	1248.16845703125	244.0353393554688	424.3329467773438	1152.356201171875	256.8065795898439	380.0559692382812	1378.701171875	257.0387268066407	185.5486450195312	1285.027221679688	169.3781127929688	230.6171569824219	1414.058715820313	139.8704528808594	267.9049682617188	1405.675048828125	78.75927734375004	317.4491271972657	1418.10205078125	66.94876861572271	231.4694519042969	1094.334838867188	26.69351005554203	224.8313293457032	1091.402465820313	95.30389404296879	215.4102172851563	1073.76611328125	69.94058227539067	278.0722045898438	845.9827880859377	-7.616593360900847	211.8260345458985	865.0734863281252	-29.42732620239256	283.9646301269532	760.5886230468751	-33.5910949707031	184.905517578125	779.3161621093752	-30.94754219055174	176.9616241455078	1281.11083984375	324.0157470703126	218.5115966796875	1412.517333984375	358.8609619140626	262.3233337402344	1409.9228515625	422.213836669922	300.2455444335938	1425.134643554688	426.0675048828127	292.6034851074219	1100.004028320313	512.5552368164064	255.5929565429688	1086.653930664063	443.9553833007814	257.8028564453125	1064.685913085938	484.8012084960939	456.2566528320313	902.2496337890627	487.6864624023439	400.9813537597657	884.6480712890627	529.9649047851564	508.0076293945313	822.9594726562502	505.8980407714845	410.8036499023438	799.9080810546877	519.5590209960939	
133	1.32	465.7984008789064	940.270202636719	144.147201538086	243.0437927246094	984.0379638671877	178.8576660156251	225.9652709960938	965.1326293945315	273.3513183593751	419.4276123046876	922.017517089844	371.6953735351564	404.8658142089845	881.388122558594	42.8309059143067	469.5264587402345	466.880584716797	127.0263290405274	419.5684204101563	455.9677124023439	251.3230438232423	447.9730224609376	406.9030761718751	119.2918319702149	488.5250244140626	399.4336853027345	182.1152648925782	409.9436950683595	60.77345275878908	171.9799804687501	425.1400451660157	87.27388763427736	264.7193908691407	361.7734680175782	19.07207298278809	210.5014953613282	541.0155639648439	16.34079360961914	279.4057922363282	568.3430175781251	33.13701248168946	228.1430816650392	537.6958007812501	16.84787940979004	165.4855346679688	303.169677734375	830.6677246093752	431.3096008300783	389.4927062988282	439.2000122070314	401.247283935547	413.2433471679688	416.3168334960939	265.5397033691407	343.0427551269531	411.3818969726564	407.4425659179689	382.7763061523438	355.7542724609376	357.4591674804689	59.12652587890622	231.7026977539063	361.2931823730469	90.81689453124999	210.8727722167969	278.5371093750001	10.7604360580444	247.9888153076172	297.9738159179688	84.2447052001953	73.59426879882814	278.0025329589844	82.72705078124997	66.23469543457033	335.7103576660157	39.49263381958004	92.2256546020508	376.3282165527344	266.79052734375	1465.561401367188	252.873764038086	201.7476959228516	1249.94580078125	242.7154541015626	435.9759826660157	1153.266967773438	257.723846435547	392.5194396972657	1379.926391601563	257.5625610351564	198.3899536132813	1287.225341796875	167.6535339355469	244.3002014160157	1416.08740234375	139.1096649169922	281.9740600585938	1407.572998046875	78.19568634033207	331.7978820800782	1419.806030273438	67.04879760742193	250.2589416503907	1094.506225585938	25.49232292175297	242.150863647461	1091.827758789063	93.76074981689457	233.5628967285157	1073.574951171875	68.15774536132817	305.3024291992188	847.6209716796877	-6.903683662414515	239.2459716796876	864.3123779296877	-30.4637813568115	315.4764099121094	762.9785156250001	-33.43360519409177	215.7027435302735	777.3472900390627	-32.71691513061521	188.3701477050781	1282.888916015625	322.6146545410157	230.356689453125	1414.141723632813	358.1318054199219	273.722412109375	1411.221923828125	421.7483825683595	311.6915893554688	1426.30224609375	425.9556274414064	301.437744140625	1100.978759765625	511.3606872558595	263.9128723144531	1088.521850585938	443.0881347656252	265.8546447753906	1066.680786132813	483.6363220214845	458.9763793945313	898.2542114257815	486.5928955078127	403.4001159667969	882.6995239257815	529.5648803710939	507.4837341308594	816.4954223632815	503.587860107422	409.7252807617188	797.5774536132815	519.0485839843751	
